<svg width="167" height="50" viewBox="0 0 727 170" fill="none" xmlns="http://www.w3.org/2000/svg">
    <path fill-rule="evenodd" clip-rule="evenodd"
        d="M 151.2 1.1 C 149.3 1.8 142.8 4.1 136.9 6.2 C 131 8.2 122.7 11.2 118.3 12.7 C 114 14.2 107.6 16.5 104 17.8 C 100.5 19 88.6 23.2 77.6 27.1 C 66.6 31.1 54.6 35.3 51 36.6 C 20.3 47.3 0 54.7 0 55.1 C 0 55.4 0.9 55.9 2.3 56.3 C 3.6 56.7 7.7 58 11.4 59.1 C 15.2 60.3 24 63 31 65.1 C 43.1 68.8 43.8 69 45.1 68.7 C 45.9 68.5 48.9 67.6 51.8 66.7 C 54.7 65.8 57.4 65.1 57.7 65.1 C 58 65.2 56.9 66.5 54.5 68.9 C 50.5 72.9 43.3 80.2 36.3 87.3 C 33.6 90 32.1 91.8 32.3 92 C 32.6 92.3 35.6 91.5 49.2 87.6 C 54.7 86 61.2 84.2 61.4 84.2 C 61.9 84.2 61.6 85.1 58.2 91.7 C 53.8 100.5 47.7 112.6 41.2 125.4 C 21.2 164.9 18.8 169.7 18.8 169.8 C 18.8 169.9 18.9 170 19.1 170 C 19.5 170 21.6 168.9 47.7 155.5 C 62.9 147.7 71.3 143.5 96.4 130.8 C 102.6 127.7 114.8 121.4 123.5 117 C 132.3 112.5 146.3 105.3 154.7 101.1 C 163.1 96.8 170 93.2 170 93 C 170 92.7 169.7 92.6 169.4 92.6 C 169 92.6 159.1 92.1 147.4 91.6 C 134.5 91.1 125.7 90.8 125.2 91 C 124.6 91.2 116.3 93.4 113.8 94.1 C 113.4 94.1 113.2 94.1 113.2 93.9 C 113.2 93.7 123.8 82.9 132.7 74.1 C 135.3 71.5 135.7 70.9 134.9 70.6 C 134.5 70.5 116.2 72.9 112.7 73.6 C 112 73.7 111.7 73.6 111.7 73.2 C 111.7 72.9 113.6 69.7 115.8 66.1 C 121.5 56.7 131.2 40.7 136.8 31.3 C 146.7 14.6 152.4 4.9 154.1 2.3 C 154.8 1.1 155.3 0.1 155.1 0 C 154.9 -0.1 153.2 0.4 151.2 1.1 Z M 130.6 16.2 C 128.7 18.8 103.1 60 91.7 78.7 C 87.8 85.1 86.7 87.3 87 87.5 C 87.3 87.8 90.3 87.1 99.1 84.4 C 105.5 82.5 110.8 81.1 110.9 81.2 C 111.2 81.4 111.2 81.3 102.6 90.8 C 88.5 106.5 83.1 112.6 83.3 112.9 C 83.5 113.4 84.8 113.1 92.1 110.8 C 101 107.9 121.7 101.5 122.2 101.5 C 122.7 101.5 120.1 103.1 98.5 115.8 C 52.9 142.5 39.4 150.4 39.2 150.3 C 39.1 150.3 42 145.6 45.5 140 C 52.1 129.5 59 118.3 69.4 101.4 C 85.1 75.9 88.9 69.5 88.7 69.2 C 88.3 68.7 87.6 68.8 79.8 71 C 62.1 75.9 61 76.2 61 75.7 C 61 75.5 62.9 73.5 65.3 71.1 C 67.8 68.7 73.2 63.3 77.4 59.1 C 81.6 54.9 86 50.5 87.1 49.4 C 89.2 47.4 89.7 46.5 88.6 46.5 C 88.3 46.5 77.9 49.5 65.5 53.2 C 53.1 57 43 59.9 42.9 59.8 C 42.7 59.7 61.3 50.2 92.1 34.8 C 122.9 19.4 128.9 16.4 129.8 15.9 C 130.9 15.3 131.2 15.4 130.6 16.2 Z"
        fill="#5057e6" />
    <path
        d="M 190 51.7 V 45.8 C 190 44.1 190.6 42.7 191.7 41.6 C 192.9 40.4 194.3 39.9 195.9 39.9 H 268.9 C 270.5 39.9 271.9 40.4 273 41.6 C 274.2 42.7 274.8 44.1 274.8 45.8 V 52.8 C 274.8 54.5 274.4 56.2 273.6 57.8 C 272.9 59.3 272.3 60.5 271.6 61.1 L 268.9 63.9 L 219.7 111.8 H 269.5 C 271.2 111.8 272.6 112.4 273.7 113.5 C 274.8 114.6 275.4 116 275.4 117.8 V 123.6 C 275.4 125.3 274.8 126.8 273.7 127.9 C 272.6 129 271.2 129.5 269.5 129.5 H 196.9 C 195.3 129.5 193.9 129 192.8 127.9 C 191.6 126.8 191.1 125.3 191.1 123.6 V 116.7 C 191.1 112.7 193 108.7 196.9 104.8 L 244.6 57.6 H 195.9 C 194.3 57.6 192.9 57 191.7 55.9 C 190.6 54.8 190 53.4 190 51.7 Z M 282.4 42.9 C 282.4 40.9 283.5 39.9 285.6 39.9 H 297.5 C 302.2 39.9 305.8 41.9 308.4 45.8 L 328.6 77 L 348.8 45.8 C 351.4 41.9 355 39.9 359.7 39.9 H 371.6 C 373.7 39.9 374.8 40.9 374.8 42.9 C 374.8 43.8 374.5 44.8 373.8 45.8 L 340.4 97.5 V 123.8 C 340.4 125.4 339.8 126.8 338.6 127.9 C 337.5 129 336.1 129.5 334.5 129.5 H 322.7 C 321.1 129.5 319.7 129 318.6 127.9 C 317.4 126.8 316.8 125.4 316.8 123.8 V 97.5 L 283.4 45.8 C 282.7 44.8 282.4 43.8 282.4 42.9 Z M 387.6 123.8 V 45.9 C 387.6 44.2 388.2 42.8 389.4 41.6 C 390.5 40.5 391.9 39.9 393.6 39.9 H 405.3 C 406.9 39.9 408.3 40.5 409.4 41.6 C 410.6 42.8 411.2 44.2 411.2 45.9 V 111.8 H 465.6 C 467.2 111.8 468.6 112.4 469.7 113.6 C 470.9 114.7 471.5 116.1 471.5 117.8 V 123.6 C 471.5 125.3 470.9 126.6 469.7 127.8 C 468.6 128.9 467.2 129.5 465.6 129.5 H 393.6 C 391.9 129.5 390.5 129 389.4 127.9 C 388.2 126.8 387.6 125.4 387.6 123.8 Z M 484.3 123.8 V 45.8 C 484.3 44.2 484.9 42.8 486.1 41.6 C 487.2 40.5 488.6 39.9 490.2 39.9 H 501.9 C 503.6 39.9 505 40.5 506.1 41.6 C 507.3 42.8 507.9 44.2 507.9 45.8 V 123.6 C 507.9 125.3 507.3 126.6 506.1 127.8 C 504.9 128.9 503.5 129.5 501.9 129.5 H 490.2 C 488.6 129.5 487.2 129 486.1 127.9 C 484.9 126.8 484.3 125.4 484.3 123.8 Z M 521.1 45.1 C 520.9 44.6 520.7 44.1 520.7 43.5 C 520.7 42.9 521.1 42.1 521.9 41.3 C 522.7 40.3 523.8 39.9 525.2 39.9 H 538.9 C 542.1 39.9 544.6 41.9 546.3 45.8 L 570.5 99.7 L 594.7 45.8 C 596.4 41.9 598.9 39.9 602.1 39.9 H 615.8 C 617.3 39.9 618.4 40.3 619.1 41.3 C 619.9 42.1 620.2 42.9 620.2 43.5 C 620.2 44.1 620.1 44.6 619.9 45.1 L 583.9 123.1 C 582 127.4 579 129.5 575 129.5 H 566 C 562 129.5 559 127.4 557.1 123.1 L 521.1 45.1 Z M 713.9 120.3 C 705.4 127.7 692.9 131.4 676.4 131.4 C 659.9 131.4 647.4 127.7 638.9 120.3 C 630.3 112.8 626 100.9 626 84.7 C 626 68.5 630.3 56.6 638.9 49.2 C 647.4 41.7 659.9 38 676.4 38 C 692.9 38 705.4 41.7 713.9 49.2 C 722.4 56.6 726.7 68.5 726.7 84.7 C 726.7 100.9 722.4 112.8 713.9 120.3 Z M 696.8 62.4 C 692.6 57.4 685.8 54.9 676.4 54.9 C 667 54.9 660.2 57.4 655.9 62.4 C 651.7 67.4 649.6 74.8 649.6 84.8 C 649.6 94.6 651.7 102.1 655.9 107.1 C 660.2 112 667 114.5 676.4 114.5 C 685.8 114.5 692.6 112 696.8 107.1 C 701 102.1 703.1 94.6 703.1 84.8 C 703.1 74.8 701 67.4 696.8 62.4 Z"
        fill="#000" />
</svg>